<svg width="18" height="20" viewBox="0 0 18 20" fill="none" xmlns="http://www.w3.org/2000/svg">
<path d="M17.3334 20L12.9584 15.8334L13.4834 17.5H2.75002C2.19749 17.5 1.66758 17.2805 1.27688 16.8898C0.88618 16.4991 0.666687 15.9692 0.666687 15.4167V2.91671C0.666687 2.36417 0.88618 1.83427 1.27688 1.44357C1.66758 1.05287 2.19749 0.833374 2.75002 0.833374H15.25C15.8026 0.833374 16.3325 1.05287 16.7232 1.44357C17.1139 1.83427 17.3334 2.36417 17.3334 2.91671V20ZM9.00002 5.66671C6.76669 5.66671 5.20002 6.62504 5.20002 6.62504C6.05835 5.85837 7.55835 5.41671 7.55835 5.41671L7.41669 5.27504C6.00835 5.30004 4.73335 6.27504 4.73335 6.27504C3.30002 9.26671 3.39169 11.85 3.39169 11.85C4.55835 13.3584 6.29169 13.25 6.29169 13.25L6.88335 12.5C5.84169 12.275 5.18335 11.35 5.18335 11.35C5.18335 11.35 6.75002 12.4167 9.00002 12.4167C11.25 12.4167 12.8167 11.35 12.8167 11.35C12.8167 11.35 12.1584 12.275 11.1167 12.5L11.7084 13.25C11.7084 13.25 13.4417 13.3584 14.6084 11.85C14.6084 11.85 14.7 9.26671 13.2667 6.27504C13.2667 6.27504 11.9917 5.30004 10.5834 5.27504L10.4417 5.41671C10.4417 5.41671 11.9417 5.85837 12.8 6.62504C12.8 6.62504 11.2334 5.66671 9.00002 5.66671ZM7.27502 8.82504C7.81669 8.82504 8.25835 9.30004 8.25002 9.88337C8.25002 10.4584 7.81669 10.9417 7.27502 10.9417C6.74169 10.9417 6.30835 10.4584 6.30835 9.88337C6.30835 9.30004 6.73335 8.82504 7.27502 8.82504ZM10.75 8.82504C11.2917 8.82504 11.725 9.30004 11.725 9.88337C11.725 10.4584 11.2917 10.9417 10.75 10.9417C10.2167 10.9417 9.78335 10.4584 9.78335 9.88337C9.78335 9.30004 10.2084 8.82504 10.75 8.82504Z" fill="black"/>
</svg>
