<svg width="18" height="17" viewBox="0 0 18 17" fill="none" xmlns="http://www.w3.org/2000/svg">
<path d="M8.99999 0.666626C7.90564 0.666626 6.82201 0.882174 5.81096 1.30096C4.79991 1.71975 3.88125 2.33358 3.10743 3.1074C1.54463 4.67021 0.666656 6.78982 0.666656 8.99996C0.666656 12.6833 3.05832 15.8083 6.36666 16.9166C6.78332 16.9833 6.91666 16.725 6.91666 16.5V15.0916C4.60832 15.5916 4.11666 13.975 4.11666 13.975C3.73332 13.0083 3.19166 12.75 3.19166 12.75C2.43332 12.2333 3.24999 12.25 3.24999 12.25C4.08332 12.3083 4.52499 13.1083 4.52499 13.1083C5.24999 14.375 6.47499 14 6.94999 13.8C7.02499 13.2583 7.24166 12.8916 7.47499 12.6833C5.62499 12.475 3.68332 11.7583 3.68332 8.58329C3.68332 7.65829 3.99999 6.91663 4.54166 6.32496C4.45832 6.11663 4.16666 5.24996 4.62499 4.12496C4.62499 4.12496 5.32499 3.89996 6.91666 4.97496C7.57499 4.79163 8.29166 4.69996 8.99999 4.69996C9.70832 4.69996 10.425 4.79163 11.0833 4.97496C12.675 3.89996 13.375 4.12496 13.375 4.12496C13.8333 5.24996 13.5417 6.11663 13.4583 6.32496C14 6.91663 14.3167 7.65829 14.3167 8.58329C14.3167 11.7666 12.3667 12.4666 10.5083 12.675C10.8083 12.9333 11.0833 13.4416 11.0833 14.2166V16.5C11.0833 16.725 11.2167 16.9916 11.6417 16.9166C14.95 15.8 17.3333 12.6833 17.3333 8.99996C17.3333 7.90561 17.1178 6.82198 16.699 5.81093C16.2802 4.79988 15.6664 3.88122 14.8925 3.1074C14.1187 2.33358 13.2001 1.71975 12.189 1.30096C11.178 0.882174 10.0943 0.666626 8.99999 0.666626Z" fill="black"/>
</svg>
