<svg width="18" height="18" viewBox="0 0 18 18" fill="none" xmlns="http://www.w3.org/2000/svg">
<path d="M11.0834 11.8416C11.15 11.9166 11.15 12.075 11.0834 12.1666C10.475 12.75 9.34169 12.8 9.00002 12.8C8.67502 12.8 7.54169 12.75 6.95002 12.1666C6.86669 12.075 6.86669 11.9166 6.95002 11.8416C7.04169 11.7583 7.18335 11.7583 7.26669 11.8416C7.65002 12.225 8.44169 12.3333 9.00002 12.3333C9.57502 12.3333 10.3834 12.225 10.75 11.8416C10.8417 11.7583 10.9834 11.7583 11.0834 11.8416ZM7.95835 9.86663C7.95835 9.39163 7.56669 8.99996 7.09169 8.99996C6.61669 8.99996 6.22502 9.39163 6.22502 9.86663C6.22502 10.3416 6.61669 10.7416 7.09169 10.7333C7.56669 10.7333 7.95835 10.3416 7.95835 9.86663ZM10.9084 8.99996C10.4334 8.99996 10.0417 9.41663 10.0417 9.87496C10.0417 10.3333 10.4334 10.7416 10.9084 10.7416C11.3834 10.7416 11.775 10.3416 11.775 9.87496C11.775 9.41663 11.3834 8.99996 10.9084 8.99996ZM17.3334 8.99996C17.3334 13.5833 13.5834 17.3333 9.00002 17.3333C4.41669 17.3333 0.666687 13.5833 0.666687 8.99996C0.666687 4.41663 4.41669 0.666626 9.00002 0.666626C13.5834 0.666626 17.3334 4.41663 17.3334 8.99996ZM14.5584 8.99996C14.5584 8.32496 14 7.78329 13.35 7.78329C13.0167 7.78329 12.7167 7.91663 12.5 8.12496C11.6667 7.52496 10.525 7.14163 9.25002 7.09163L9.80835 4.48329L11.6167 4.87496C11.6334 5.33329 12.0167 5.69996 12.4834 5.69996C12.9584 5.69996 13.35 5.30829 13.35 4.83329C13.35 4.35829 12.9584 3.96663 12.4834 3.96663C12.1417 3.96663 11.8417 4.16663 11.7084 4.45829L9.68335 4.02496C9.62502 3.99996 9.56669 4.02496 9.52502 4.05829C9.47502 4.09163 9.45002 4.14163 9.44169 4.19996L8.82502 7.09996C7.53335 7.14163 6.36669 7.52496 5.51669 8.13329C5.30002 7.92496 5.00002 7.79996 4.67502 7.79996C4.00002 7.79996 3.45835 8.34163 3.45835 8.99996C3.45835 9.50829 3.75835 9.92496 4.17502 10.1166C4.15835 10.25 4.15002 10.35 4.15002 10.4833C4.15002 12.3333 6.32502 13.875 9.00002 13.875C11.6917 13.875 13.875 12.3583 13.875 10.4833C13.875 10.3666 13.8667 10.25 13.8417 10.1166C14.2584 9.92496 14.5584 9.49996 14.5584 8.99996Z" fill="black"/>
</svg>
