<svg width="18" height="15" viewBox="0 0 18 15" fill="none" xmlns="http://www.w3.org/2000/svg">
<path d="M17.7167 2.00004C17.075 2.29171 16.3833 2.48337 15.6667 2.57504C16.4 2.13337 16.9667 1.43337 17.2333 0.591707C16.5417 1.00837 15.775 1.30004 14.9667 1.46671C14.3083 0.750041 13.3833 0.333374 12.3333 0.333374C10.375 0.333374 8.77499 1.93337 8.77499 3.90837C8.77499 4.19171 8.80833 4.46671 8.86666 4.72504C5.89999 4.57504 3.25833 3.15004 1.49999 0.991707C1.19166 1.51671 1.01666 2.13337 1.01666 2.78337C1.01666 4.02504 1.64166 5.12504 2.60833 5.75004C2.01666 5.75004 1.46666 5.58337 0.983325 5.33337V5.35837C0.983325 7.09171 2.21666 8.54171 3.84999 8.86671C3.3256 9.01021 2.77507 9.03018 2.24166 8.92504C2.468 9.63544 2.91127 10.257 3.50917 10.7025C4.10707 11.1479 4.82953 11.3948 5.57499 11.4084C4.31135 12.4087 2.74499 12.9495 1.13333 12.9417C0.849992 12.9417 0.566659 12.925 0.283325 12.8917C1.86666 13.9084 3.74999 14.5 5.76666 14.5C12.3333 14.5 15.9417 9.05004 15.9417 4.32504C15.9417 4.16671 15.9417 4.01671 15.9333 3.85837C16.6333 3.35837 17.2333 2.72504 17.7167 2.00004Z" fill="black"/>
</svg>
